PathFileType	4	(X/Y/Z)	Walk2.trc
DataRate	CameraRate	NumFrames	NumMarkers	Units	OrigDataRate	OrigDataStartFrame	OrigNumFrames
200.000000	200.000000	6	59	mm	200.000000	371	574
Frame#	Times		RFHD		CLAV		STRN		LASI		RASI		RACR1		RUA1		RElbow		RFA1		RWRU		LACR1		LUA1		LFA1		LCAR		RTH1		RTH2		LTH3		LTH2		LTH4		LLFC		LTB1		LTB3		LTB4		LLMAL		LMT1		LToe		RTH3		LTH1		LFHD		C7		RCAR		RTH4		LWRR		RLFC		LTB2		RBack		RPSI		LMT5		LMMAL		RBHD		T10		LPSI		LElbow		RTB1		LWRU		RTB2		RCAL		RMMAL		RTB4		RToe		RMT1		RTB3		RWRR		LElbowM		LBHD		RElbowM		RMT5		RLMAL		LCAL
			X1	Y1	Z1	X2	Y2	Z2	X3	Y3	Z3	X4	Y4	Z4	X5	Y5	Z5	X6	Y6	Z6	X7	Y7	Z7	X8	Y8	Z8	X9	Y9	Z9	X10	Y10	Z10	X11	Y11	Z11	X12	Y12	Z12	X13	Y13	Z13	X14	Y14	Z14	X15	Y15	Z15	X16	Y16	Z16	X17	Y17	Z17	X18	Y18	Z18	X19	Y19	Z19	X20	Y20	Z20	X21	Y21	Z21	X22	Y22	Z22	X23	Y23	Z23	X24	Y24	Z24	X25	Y25	Z25	X26	Y26	Z26	X27	Y27	Z27	X28	Y28	Z28	X29	Y29	Z29	X30	Y30	Z30	X31	Y31	Z31	X32	Y32	Z32	X33	Y33	Z33	X34	Y34	Z34	X35	Y35	Z35	X36	Y36	Z36	X37	Y37	Z37	X38	Y38	Z38	X39	Y39	Z39	X40	Y40	Z40	X41	Y41	Z41	X42	Y42	Z42	X43	Y43	Z43	X44	Y44	Z44	X45	Y45	Z45	X46	Y46	Z46	X47	Y47	Z47	X48	Y48	Z48	X49	Y49	Z49	X50	Y50	Z50	X51	Y51	Z51	X52	Y52	Z52	X53	Y53	Z53	X54	Y54	Z54	X55	Y55	Z55	X56	Y56	Z56	X57	Y57	Z57	X58	Y58	Z58	X59	Y59	Z59

371	1.855	26.228	1565.7	38.264	-25.157	1325.8	-15.071	52.268	1102.1	-22.321	-20.68	920.46	-149.99	16.474	932.62	116.22	-70.529	1331.6	161.38	-120.94	1123.9	218	-159.98	1022.5	237.83	-116.12	875.42	249.82	-158.74	771.38	264.92	-93.799	1347	-180.59	-91.624	1142.2	-238.83	14.442	929.41	-267.08	100.05	799.68	-271.45	-37.123	746.94	173.79	49.617	688.13	118.94	-139.2	528.15	-137.96	-65.388	616.01	-124.9	-137.29	615.85	-153.14	-168.74	424.77	-125.13	-201.83	323.54	-51.396	-334.53	190.76	-58.726	-268.13	254.79	-59.275	-435.19	127.49	-109.09	-326.76	37.906	-56.971	-285.29	26.918	-85.28	22.786	570.58	136.7	-132.42	712.08	-167.54	22.958	1563.2	-34.763	-150.87	1404	-3.023	-117.53	726.27	264.55	-6.8702	658.6	155.03	84.658	838.08	-227.67	49.292	470.98	125.32	-282.74	273.5	-127.38	-191.68	1296.5	90.634	-206.2	964.83	72.269	-370.04	27.948	-131.15	-415.46	130.05	-27.992	-147.66	1535.5	66.771	-187.02	1119.4	-5.7969	-221.27	956.55	-41.208	-85.67	1022.2	-260.28	95.398	354.39	49.318	37.688	810.2	-274.12	89.175	263.42	118.35	35.933	22.819	45.686	95.277	77.642	17.118	99.539	261.47	48.375	275.33	37.455	81.372	236.14	43.127	51.103	105.15	169.47	46.624	-104.79	769.54	214.27	-104.21	1000.2	-194.15	-147.11	1542.3	-60.892	-172.45	1002.8	154.13	192.66	22.007	128.78	76.613	57.933	94.752	-492.41	128.53	-55.399
372	1.86	31.77	1566.2	39.341	-19.17	1326	-13.876	58.365	1102.4	-21.246	-14.445	920.35	-148.31	22.669	932.96	117.02	-64.455	1331.7	162.56	-114.53	1123.9	218.91	-153.45	1022.4	238.6	-109.44	875.37	250.59	-151.99	771.32	265.66	-87.639	1347.2	-179.33	-86.09	1142.5	-237.6	19.142	929.49	-266.39	104.52	799.72	-271.24	-30.626	747.5	174.32	55.981	689.13	118.89	-130.43	527.77	-137.71	-57.458	616.23	-123.9	-129.18	615.53	-152.6	-159.62	424.79	-125.16	-193.92	323.81	-51.979	-328.73	193.28	-59.987	-261.35	256.24	-60.172	-430.5	131.87	-110.45	-325.98	38.167	-57.169	-285.38	26.767	-85.153	29.695	571.46	136.6	-125.05	711.84	-166.62	28.462	1563.6	-33.68	-144.91	1404.1	-1.8086	-110.74	726.28	265.4	-0.23839	659.31	155.1	89.645	838.26	-227.42	55.47	471.29	125.38	-275.76	275.63	-128.15	-185.58	1296.5	91.812	-200.28	965.17	73.15	-368.91	29.322	-131.2	-410.71	134	-29.442	-142.01	1535.5	68.02	-181.27	1119.6	-4.8077	-215.52	956.41	-40.416	-80.824	1022.4	-259.13	99.883	354.14	49.054	42.158	810.19	-273.29	93.071	263.19	118.14	36.037	23.183	45.725	95.879	77.283	16.732	102.82	261.16	48.022	276.44	35.487	80.603	236.81	41.702	50.351	107.18	169.1	46.189	-97.963	769.5	215.1	-99.024	1000.6	-192.82	-141.56	1542.2	-59.658	-165.81	1002.8	154.88	192.94	21.626	129.12	77.389	58.016	94.456	-487.34	134.9	-56.93
373	1.865	37.324	1566.7	40.403	-13.213	1326.2	-12.702	64.423	1102.6	-20.164	-8.1782	920.27	-146.62	28.829	933.35	117.83	-58.371	1331.9	163.71	-108.09	1123.9	219.81	-146.89	1022.4	239.38	-102.72	875.37	251.34	-145.17	771.31	266.38	-81.513	1347.5	-178.07	-80.56	1142.8	-236.39	23.787	929.6	-265.68	108.89	799.74	-270.99	-24.33	747.97	174.91	62.166	690.03	118.97	-121.43	527.43	-137.5	-49.376	616.52	-122.92	-120.91	615.25	-152.1	-150.21	424.85	-125.24	-185.68	324.14	-52.597	-322.58	195.89	-61.258	-254.24	257.76	-61.09	-425.46	136.37	-111.8	-325.04	38.531	-57.387	-285.43	26.609	-85.043	36.412	572.25	136.56	-117.58	711.64	-165.72	33.975	1564.1	-32.611	-138.97	1404.2	-0.60018	-103.87	726.34	266.23	6.2049	659.94	155.24	94.517	838.42	-227.14	61.503	471.56	125.44	-268.45	277.84	-128.93	-179.49	1296.6	93.004	-194.41	965.51	74.02	-367.59	30.901	-131.26	-405.58	138.06	-30.879	-136.35	1535.5	69.257	-175.54	1119.8	-3.8232	-209.8	956.3	-39.628	-76.011	1022.7	-258	104.23	353.88	48.797	46.534	810.19	-272.45	96.814	262.95	117.93	36.121	23.499	45.756	96.396	76.969	16.362	105.98	260.86	47.679	277.43	33.857	79.957	237.38	40.558	49.685	109.1	168.76	45.767	-91.075	769.52	215.9	-93.888	1000.9	-191.51	-136.01	1542.1	-58.435	-159.15	1002.8	155.63	193.16	21.363	129.43	78.073	58.118	94.173	-481.84	141.4	-58.446
374	1.87	42.89	1567.2	41.449	-7.2941	1326.4	-11.55	70.435	1103	-19.08	-1.8892	920.24	-144.93	34.949	933.77	118.67	-52.281	1332.1	164.85	-101.61	1123.9	220.7	-140.3	1022.3	240.16	-95.948	875.42	252.08	-138.29	771.34	267.09	-75.433	1347.9	-176.82	-75.041	1143.2	-235.19	28.382	929.72	-264.96	113.16	799.72	-270.71	-18.234	748.35	175.55	68.172	690.82	119.19	-112.22	527.13	-137.33	-41.161	616.89	-121.98	-112.51	615.01	-151.62	-140.54	424.94	-125.36	-177.14	324.51	-53.243	-316.09	198.56	-62.522	-246.81	259.33	-62.016	-420.05	140.95	-113.11	-323.92	39.012	-57.627	-285.39	26.448	-84.956	42.906	572.93	136.6	-110.04	711.47	-164.84	39.498	1564.5	-31.558	-133.07	1404.4	0.60218	-96.939	726.44	267.04	12.446	660.46	155.48	99.275	838.55	-226.84	67.371	471.76	125.51	-260.83	280.12	-129.72	-173.41	1296.8	94.208	-188.56	965.83	74.881	-366.04	32.698	-131.32	-400.08	142.2	-32.285	-130.68	1535.5	70.479	-169.86	1120	-2.8431	-204.1	956.2	-38.839	-71.23	1023	-256.88	108.45	353.6	48.559	50.824	810.21	-271.63	100.39	262.71	117.74	36.189	23.768	45.778	96.841	76.695	16.014	109.02	260.55	47.357	278.33	32.533	79.432	237.87	39.662	49.106	110.9	168.42	45.369	-84.123	769.59	216.69	-88.797	1001.3	-190.22	-130.45	1542.1	-57.223	-152.46	1002.9	156.38	193.32	21.196	129.69	78.671	58.231	93.908	-475.92	148.01	-59.934
375	1.875	48.466	1567.6	42.474	-1.4169	1326.7	-10.423	76.396	1103.3	-17.997	4.4094	920.25	-143.26	41.021	934.22	119.53	-46.19	1332.3	165.97	-95.098	1124	221.59	-133.68	1022.4	240.94	-89.125	875.51	252.81	-131.34	771.4	267.79	-69.409	1348.2	-175.57	-69.537	1143.6	-234.02	32.931	929.86	-264.24	117.35	799.68	-270.4	-12.336	748.63	176.26	74	691.48	119.56	-102.86	526.89	-137.21	-32.835	617.35	-121.08	-103.99	614.83	-151.19	-130.65	425.08	-125.51	-168.34	324.94	-53.905	-309.27	201.29	-63.757	-239.09	260.97	-62.938	-414.29	145.6	-114.38	-322.6	39.622	-57.892	-285.24	26.291	-84.896	49.149	573.49	136.72	-102.43	711.36	-163.99	45.028	1564.9	-30.524	-127.21	1404.6	1.7981	-89.935	726.57	267.82	18.472	660.88	155.8	103.92	838.67	-226.52	73.059	471.91	125.61	-252.93	282.45	-130.49	-167.35	1296.9	95.424	-182.76	966.14	75.732	-364.23	34.718	-131.39	-394.24	146.39	-33.641	-125.01	1535.6	71.687	-164.2	1120.3	-1.8681	-198.44	956.12	-38.049	-66.481	1023.4	-255.78	112.53	353.31	48.353	55.032	810.24	-270.82	103.79	262.45	117.56	36.244	23.991	45.792	97.223	76.457	15.691	111.95	260.24	47.066	279.12	31.479	79.022	238.27	38.984	48.609	112.6	168.1	45	-77.106	769.71	217.46	-83.751	1001.8	-188.94	-124.89	1542.2	-56.024	-145.75	1003	157.14	193.44	21.105	129.92	79.192	58.348	93.666	-469.6	154.68	-61.38
376	1.88	54.053	1568.1	43.478	4.4137	1327	-9.3238	82.299	1103.7	-16.92	10.704	920.31	-141.62	47.04	934.69	120.41	-40.103	1332.6	167.07	-88.559	1124.1	222.47	-127.03	1022.4	241.73	-82.255	875.63	253.53	-124.33	771.49	268.48	-63.45	1348.6	-174.33	-64.054	1144.1	-232.86	37.436	930.02	-263.51	121.45	799.6	-270.04	-6.6309	748.82	177.02	79.656	691.99	120.08	-93.354	526.72	-137.12	-24.42	617.88	-120.23	-95.376	614.7	-150.79	-120.57	425.27	-125.71	-159.3	325.43	-54.571	-302.15	204.05	-64.943	-231.1	262.65	-63.839	-408.19	150.28	-115.57	-321.02	40.373	-58.183	-284.94	26.146	-84.868	55.112	573.91	136.93	-94.776	711.29	-163.18	50.563	1565.4	-29.514	-121.39	1404.8	2.9869	-82.861	726.74	268.58	24.272	661.18	156.22	108.46	838.75	-226.16	78.55	472	125.73	-244.75	284.82	-131.24	-161.3	1297.1	96.65	-176.99	966.44	76.575	-362.12	36.966	-131.45	-388.06	150.63	-34.929	-119.34	1535.7	72.881	-158.58	1120.6	-0.89941	-192.79	956.05	-37.257	-61.763	1023.8	-254.7	116.47	352.99	48.19	59.166	810.28	-270.03	107.02	262.17	117.41	36.29	24.172	45.799	97.553	76.251	15.396	114.77	259.93	46.816	279.82	30.659	78.726	238.59	38.489	48.192	114.2	167.78	44.668	-70.028	769.86	218.21	-78.751	1002.3	-187.68	-119.33	1542.2	-54.84	-139.03	1003.1	157.91	193.52	21.073	130.12	79.644	58.465	93.447	-462.91	161.36	-62.77
